{
  "accessors": [
    {
      "bufferView": 3,
      "componentType": 5126,
      "count": 3671,
      "max": [
        11.346770286560059,
        36.95109939575195,
        0.631481409072876
      ],
      "min": [
        -11.346770286560059,
        -4.976794242858887,
        -0.593714714050293
      ],
      "type": "VEC3"
    },
    {
      "bufferView": 3,
      "byteOffset": 44052,
      "componentType": 5126,
      "count": 3671,
      "max": [
        0.9999639987945557,
        1.0,
        0.9999999403953552
      ],
      "min": [
        -0.9999640583992004,
        -1.0,
        -1.0
      ],
      "type": "VEC3"
    },
    {
      "bufferView": 4,
      "componentType": 5126,
      "count": 3671,
      "max": [
        1.0,
        0.9999956488609314,
        1.0,
        1.0
      ],
      "min": [
        -1.0,
        -0.9999975562095642,
        -1.0,
        -1.0
      ],
      "type": "VEC4"
    },
    {
      "bufferView": 2,
      "componentType": 5126,
      "count": 3671,
      "max": [
        0.990764319896698,
        0.9853352308273315
      ],
      "min": [
        0.003664636518806219,
        0.003664636518806219
      ],
      "type": "VEC2"
    },
    {
      "bufferView": 1,
      "componentType": 5125,
      "count": 10419,
      "type": "SCALAR"
    },
    {
      "bufferView": 3,
      "byteOffset": 88104,
      "componentType": 5126,
      "count": 4303,
      "max": [
        4.850248336791992,
        4.943692207336426,
        0.8681688904762268
      ],
      "min": [
        -4.850248336791992,
        -4.85037899017334,
        -0.593714714050293
      ],
      "type": "VEC3"
    },
    {
      "bufferView": 3,
      "byteOffset": 139740,
      "componentType": 5126,
      "count": 4303,
      "max": [
        0.9999995827674866,
        0.9999998807907104,
        1.0
      ],
      "min": [
        -0.9999995827674866,
        -0.9999997019767761,
        -0.9999999403953552
      ],
      "type": "VEC3"
    },
    {
      "bufferView": 4,
      "byteOffset": 58736,
      "componentType": 5126,
      "count": 4303,
      "max": [
        1.0,
        0.9999961256980896,
        0.9999766945838928,
        1.0
      ],
      "min": [
        -0.9998329281806946,
        -1.0,
        -0.9999881982803345,
        -1.0
      ],
      "type": "VEC4"
    },
    {
      "bufferView": 2,
      "byteOffset": 29368,
      "componentType": 5126,
      "count": 4303,
      "max": [
        0.910477876663208,
        0.9896267652511597
      ],
      "min": [
        0.008807695470750332,
        0.0028223060071468353
      ],
      "type": "VEC2"
    },
    {
      "bufferView": 1,
      "byteOffset": 41676,
      "componentType": 5125,
      "count": 20541,
      "type": "SCALAR"
    },
    {
      "bufferView": 3,
      "byteOffset": 191376,
      "componentType": 5126,
      "count": 569,
      "max": [
        1.1998937129974365,
        2.9866232872009277,
        1.2509897947311401
      ],
      "min": [
        -1.1998937129974365,
        -4.075117588043213,
        -0.23201625049114227
      ],
      "type": "VEC3"
    },
    {
      "bufferView": 3,
      "byteOffset": 198204,
      "componentType": 5126,
      "count": 569,
      "max": [
        0.9999797940254211,
        0.9999858736991882,
        1.0
      ],
      "min": [
        -0.9999796152114868,
        -0.8454558849334717,
        -1.0
      ],
      "type": "VEC3"
    },
    {
      "bufferView": 4,
      "byteOffset": 127584,
      "componentType": 5126,
      "count": 569,
      "max": [
        0.7483866214752197,
        0.7410022020339966,
        0.9999330043792725,
        1.0
      ],
      "min": [
        -0.9999947547912598,
        -0.9999919533729553,
        -0.9999116659164429,
        1.0
      ],
      "type": "VEC4"
    },
    {
      "bufferView": 2,
      "byteOffset": 63792,
      "componentType": 5126,
      "count": 569,
      "max": [
        0.6552726030349731,
        0.7848168611526489
      ],
      "min": [
        0.06584081053733826,
        0.052878737449645996
      ],
      "type": "VEC2"
    },
    {
      "bufferView": 1,
      "byteOffset": 123840,
      "componentType": 5125,
      "count": 810,
      "type": "SCALAR"
    },
    {
      "bufferView": 5,
      "componentType": 5126,
      "count": 22,
      "max": [
        100.0,
        0.44215333461761475,
        0.7331894636154175,
        0.0,
        0.7112850546836853,
        99.99998474121094,
        0.7764784693717957,
        0.0,
        0.7613881826400757,
        1.0,
        100.0,
        0.0,
        11.054712295532227,
        28.296283721923828,
        35.4862060546875,
        1.0
      ],
      "min": [
        -0.8150045871734619,
        -1.0,
        -0.9002128839492798,
        0.0,
        -0.44215208292007446,
        -0.9817079901695251,
        -0.9999998211860657,
        0.0,
        -0.9474576115608215,
        -2.3279449123947416e-07,
        -0.3989187180995941,
        0.0,
        -28.19161033630371,
        -19.645524978637695,
        -27.429672241210938,
        1.0
      ],
      "type": "MAT4"
    },
    {
      "bufferView": 0,
      "componentType": 5123,
      "count": 3671,
      "type": "VEC4"
    },
    {
      "bufferView": 4,
      "byteOffset": 136688,
      "componentType": 5126,
      "count": 3671,
      "max": [
        1.0,
        0.39298215508461,
        0.0,
        0.0
      ],
      "min": [
        0.6070178151130676,
        0.0,
        0.0,
        0.0
      ],
      "type": "VEC4"
    },
    {
      "bufferView": 0,
      "byteOffset": 29368,
      "componentType": 5123,
      "count": 4303,
      "type": "VEC4"
    },
    {
      "bufferView": 4,
      "byteOffset": 195424,
      "componentType": 5126,
      "count": 4303,
      "max": [
        1.0,
        0.0,
        0.0,
        0.0
      ],
      "min": [
        1.0,
        0.0,
        0.0,
        0.0
      ],
      "type": "VEC4"
    },
    {
      "bufferView": 0,
      "byteOffset": 63792,
      "componentType": 5123,
      "count": 569,
      "type": "VEC4"
    },
    {
      "bufferView": 4,
      "byteOffset": 264272,
      "componentType": 5126,
      "count": 569,
      "max": [
        1.0,
        0.0,
        0.0,
        0.0
      ],
      "min": [
        1.0,
        0.0,
        0.0,
        0.0
      ],
      "type": "VEC4"
    }
  ],
  "asset": {
    "extras": {
      "author": "MableArts尚子 (https://sketchfab.com/MableArts)",
      "license": "CC-BY-NC-4.0 (http://creativecommons.org/licenses/by-nc/4.0/)",
      "source": "https://sketchfab.com/3d-models/ivory-spider-arcane-focus-free-download-5ed6f2659a884018a6f0e2bf1bd08f7d",
      "title": "Ivory Spider Arcane Focus [Free Download]"
    },
    "generator": "Sketchfab-12.68.0",
    "version": "2.0"
  },
  "bufferViews": [
    {
      "buffer": 0,
      "byteLength": 68344,
      "byteStride": 8,
      "name": "shortBufferViews",
      "target": 34962
    },
    {
      "buffer": 0,
      "byteLength": 127080,
      "byteOffset": 68344,
      "name": "floatBufferViews",
      "target": 34963
    },
    {
      "buffer": 0,
      "byteLength": 68344,
      "byteOffset": 195424,
      "byteStride": 8,
      "name": "floatBufferViews",
      "target": 34962
    },
    {
      "buffer": 0,
      "byteLength": 205032,
      "byteOffset": 263768,
      "byteStride": 12,
      "name": "floatBufferViews",
      "target": 34962
    },
    {
      "buffer": 0,
      "byteLength": 273376,
      "byteOffset": 468800,
      "byteStride": 16,
      "name": "floatBufferViews",
      "target": 34962
    },
    {
      "buffer": 0,
      "byteLength": 1408,
      "byteOffset": 742176,
      "name": "floatBufferViews"
    }
  ],
  "buffers": [
    {
      "byteLength": 743584,
      "uri": "scene.bin"
    }
  ],
  "extensionsUsed": [
    "KHR_materials_clearcoat",
    "KHR_materials_transmission"
  ],
  "images": [
    {
      "uri": "textures/Material_baseColor.png"
    },
    {
      "uri": "textures/Material_normal.png"
    }
  ],
  "materials": [
    {
      "doubleSided": true,
      "name": "Material",
      "normalTexture": {
        "index": 1
      },
      "pbrMetallicRoughness": {
        "baseColorTexture": {
          "index": 0
        },
        "metallicFactor": 0.0,
        "roughnessFactor": 0.9200210091452928
      }
    },
    {
      "doubleSided": true,
      "extensions": {
        "KHR_materials_clearcoat": {
          "clearcoatFactor": 1.0,
          "clearcoatNormalTexture": {
            "index": 1
          },
          "clearcoatRoughnessFactor": 0.04
        }
      },
      "name": "Ivory",
      "normalTexture": {
        "index": 1
      },
      "pbrMetallicRoughness": {
        "baseColorTexture": {
          "index": 0
        },
        "metallicFactor": 0.0,
        "roughnessFactor": 0.0
      }
    },
    {
      "alphaMode": "BLEND",
      "doubleSided": true,
      "extensions": {
        "KHR_materials_clearcoat": {
          "clearcoatFactor": 1.0,
          "clearcoatRoughnessFactor": 0.04
        },
        "KHR_materials_transmission": {
          "transmissionFactor": 1.0
        }
      },
      "name": "Red_Gem",
      "normalTexture": {
        "index": 1
      },
      "pbrMetallicRoughness": {
        "baseColorFactor": [
          1.0,
          0.0,
          0.0,
          0.25
        ],
        "baseColorTexture": {
          "index": 0
        },
        "metallicFactor": 0.0,
        "roughnessFactor": 0.0
      }
    }
  ],
  "meshes": [
    {
      "name": "!Leather Strap LP.003_Material_0",
      "primitives": [
        {
          "attributes": {
            "JOINTS_0": 16,
            "NORMAL": 1,
            "POSITION": 0,
            "TANGENT": 2,
            "TEXCOORD_0": 3,
            "WEIGHTS_0": 17
          },
          "indices": 4,
          "material": 0,
          "mode": 4
        }
      ]
    },
    {
      "name": "!Leather Strap LP.003_Ivory_0",
      "primitives": [
        {
          "attributes": {
            "JOINTS_0": 18,
            "NORMAL": 6,
            "POSITION": 5,
            "TANGENT": 7,
            "TEXCOORD_0": 8,
            "WEIGHTS_0": 19
          },
          "indices": 9,
          "material": 1,
          "mode": 4
        }
      ]
    },
    {
      "name": "!Leather Strap LP.003_Red Gem_0",
      "primitives": [
        {
          "attributes": {
            "JOINTS_0": 20,
            "NORMAL": 11,
            "POSITION": 10,
            "TANGENT": 12,
            "TEXCOORD_0": 13,
            "WEIGHTS_0": 21
          },
          "indices": 14,
          "material": 2,
          "mode": 4
        }
      ]
    }
  ],
  "nodes": [
    {
      "children": [
        1
      ],
      "matrix": [
        8.624740439699963e-05,
        0.0,
        0.0,
        0.0,
        0.0,
        1.915077083514119e-20,
        -8.624740439699963e-05,
        0.0,
        0.0,
        8.624740439699963e-05,
        1.915077083514119e-20,
        0.0,
        0.0,
        0.0,
        0.0,
        1.0
      ],
      "name": "Sketchfab_model"
    },
    {
      "children": [
        2
      ],
      "matrix": [
        1.0,
        0.0,
        0.0,
        0.0,
        0.0,
        0.0,
        1.0,
        0.0,
        0.0,
        -1.0,
        0.0,
        0.0,
        0.0,
        0.0,
        0.0,
        1.0
      ],
      "name": "baed964dba1f40528074180f11e7eb97.fbx"
    },
    {
      "children": [
        3
      ],
      "name": "RootNode"
    },
    {
      "children": [
        4
      ],
      "matrix": [
        100.0,
        0.0,
        0.0,
        0.0,
        0.0,
        -1.629206793918314e-05,
        -99.99999999999868,
        0.0,
        0.0,
        99.99999999999868,
        -1.629206793918314e-05,
        0.0,
        0.0,
        2210.18798828125,
        -644.5565185546875,
        1.0
      ],
      "name": "Armature"
    },
    {
      "children": [
        5,
        28,
        29,
        30,
        27
      ],
      "name": "Object_4"
    },
    {
      "children": [
        6
      ],
      "name": "_rootJoint"
    },
    {
      "children": [
        7,
        9,
        11,
        13,
        15,
        17,
        18,
        20,
        22,
        24,
        26
      ],
      "name": "Root_00",
      "rotation": [
        1.0,
        1.93115634567571e-15,
        7.549790126404332e-08,
        -7.907536314633035e-07
      ],
      "translation": [
        -8.242781186339893e-14,
        -2.108832836151123,
        -1.9326676010678057e-06
      ]
    },
    {
      "children": [
        8
      ],
      "name": "Control.L.001_01",
      "rotation": [
        -6.757499022569391e-07,
        3.903766456079495e-20,
        -8.470328967672024e-22,
        1.0
      ],
      "translation": [
        5.290092945098877,
        -0.09484211355447769,
        14.975537300109863
      ]
    },
    {
      "name": "Necklace.L.001_02",
      "rotation": [
        -0.6888324618339539,
        -0.1613120287656784,
        -0.15971839427947998,
        0.6884608268737793
      ],
      "scale": [
        1.2554032802581787,
        0.6345027089118958,
        1.2554033994674683
      ],
      "translation": [
        1.2294280793412327e-07,
        4.233849048614502,
        5.708130288439861e-07
      ]
    },
    {
      "children": [
        10
      ],
      "name": "Control.L.002_03",
      "rotation": [
        -7.320626309592626e-07,
        4.229344745180367e-20,
        -1.6940657935344048e-21,
        1.0
      ],
      "translation": [
        8.89298152923584,
        -0.09485115110874176,
        7.6668267250061035
      ]
    },
    {
      "name": "Necklace.L.002_04",
      "rotation": [
        -0.7003206610679626,
        -0.09471818059682846,
        -0.09772902727127075,
        0.7007342576980591
      ],
      "scale": [
        1.1308716535568237,
        0.7819397449493408,
        1.1308716535568237
      ],
      "translation": [
        -2.0398381650466035e-07,
        4.233847618103027,
        -8.885228908184217e-08
      ]
    },
    {
      "children": [
        12
      ],
      "name": "Control.L.003_05",
      "rotation": [
        -6.836691568423703e-07,
        3.950088247265038e-20,
        -1.6940658945086007e-21,
        1.0
      ],
      "translation": [
        11.054716110229492,
        -0.09486135840415955,
        -0.053642332553863525
      ]
    },
    {
      "name": "Necklace.L.003_06",
      "rotation": [
        -0.7037679553031921,
        0.06661276519298553,
        0.06863447278738022,
        0.7039621472358704
      ],
      "scale": [
        1.1133427619934082,
        0.8067564964294434,
        1.1133427619934082
      ],
      "translation": [
        9.617742762202397e-07,
        4.233847141265869,
        2.389567498539691e-06
      ]
    },
    {
      "children": [
        14
      ],
      "name": "Control.L.004_07",
      "rotation": [
        -5.631252406601561e-07,
        3.25393304374041e-20,
        -1.6940658945086007e-21,
        1.0
      ],
      "translation": [
        9.407681465148926,
        -0.09487168490886688,
        -8.546163558959961
      ]
    },
    {
      "name": "Necklace.L.004_08",
      "rotation": [
        -0.6739162802696228,
        0.3412949740886688,
        0.21409574151039124,
        0.6192879676818848
      ],
      "scale": [
        1.1675055027008057,
        0.7336382269859314,
        1.1675053834915161
      ],
      "translation": [
        3.367607916970883e-07,
        4.233846664428711,
        7.389048732875381e-07
      ]
    },
    {
      "children": [
        16
      ],
      "name": "Control.L.005_09",
      "rotation": [
        -6.757502433174523e-07,
        3.903766456079495e-20,
        3.1756812325543575e-29,
        1.0
      ],
      "translation": [
        4.312171459197998,
        -0.09487845003604889,
        -13.384324073791504
      ]
    },
    {
      "name": "Necklace.C.001_010",
      "rotation": [
        0.6664230823516846,
        -0.6664230227470398,
        -0.23639017343521118,
        -0.23639024794101715
      ],
      "scale": [
        1.1140023469924927,
        0.8058010935783386,
        1.1140024662017822
      ],
      "translation": [
        1.1362844531959126e-07,
        4.233846664428711,
        4.231512207297783e-07
      ]
    },
    {
      "name": "Control.R.001_011",
      "rotation": [
        -4.388990078041388e-07,
        2.5366020165344243e-20,
        -3.3881317890172014e-21,
        1.0
      ],
      "translation": [
        -5.290097713470459,
        -0.09484211355447769,
        14.97553539276123
      ]
    },
    {
      "children": [
        19
      ],
      "name": "Control.R.002_012",
      "rotation": [
        -7.320626309592626e-07,
        4.229344745180367e-20,
        -1.6940657935344048e-21,
        1.0
      ],
      "translation": [
        -8.892983436584473,
        -0.09485115110874176,
        7.666823387145996
      ]
    },
    {
      "name": "Necklace.R.001_013",
      "rotation": [
        0.30404743552207947,
        0.711908221244812,
        0.6330000162124634,
        -0.007269876543432474
      ],
      "scale": [
        1.1268759965896606,
        0.7874950766563416,
        1.1268759965896606
      ],
      "translation": [
        -2.0398370281782263e-07,
        4.233847618103027,
        8.656468253320782e-08
      ]
    },
    {
      "children": [
        21
      ],
      "name": "Control.R.003_014",
      "rotation": [
        -6.836691568423703e-07,
        3.950088247265038e-20,
        -1.6940658945086007e-21,
        1.0
      ],
      "translation": [
        -11.054716110229492,
        -0.09486135840415955,
        -0.05364567041397095
      ]
    },
    {
      "name": "Necklace.R.002_015",
      "rotation": [
        0.3811192512512207,
        0.6763097047805786,
        0.5956073999404907,
        0.20641012489795685
      ],
      "scale": [
        1.1308718919754028,
        0.7819394469261169,
        1.130872130393982
      ],
      "translation": [
        -9.455744134356792e-07,
        4.233846664428711,
        2.3889958811196266e-06
      ]
    },
    {
      "children": [
        23
      ],
      "name": "Control.R.004_016",
      "rotation": [
        -5.631252406601561e-07,
        3.25393304374041e-20,
        -1.6940658945086007e-21,
        1.0
      ],
      "translation": [
        -9.407679557800293,
        -0.09487168490886688,
        -8.54616641998291
      ]
    },
    {
      "name": "Necklace.R.003_017",
      "rotation": [
        0.6257413029670715,
        -0.4424266815185547,
        -0.32931405305862427,
        0.5515965223312378
      ],
      "scale": [
        1.1133426427841187,
        0.8067565560340881,
        1.1133426427841187
      ],
      "translation": [
        3.367607916970883e-07,
        4.233846664428711,
        -1.9478693502605893e-07
      ]
    },
    {
      "children": [
        25
      ],
      "name": "Control.R.005_018",
      "rotation": [
        -6.757502433174523e-07,
        3.903766456079495e-20,
        3.1756812325543575e-29,
        1.0
      ],
      "translation": [
        -4.312167644500732,
        -0.09487845003604889,
        -13.384325981140137
      ]
    },
    {
      "name": "Necklace.R.004_019",
      "rotation": [
        0.6905317306518555,
        -0.6055623292922974,
        -0.15220361948013306,
        0.3650949001312256
      ],
      "scale": [
        1.1675052642822266,
        0.7336386442184448,
        1.1675053834915161
      ],
      "translation": [
        1.1362844531959126e-07,
        4.233846664428711,
        1.0282608400302706e-06
      ]
    },
    {
      "name": "Pendant_020",
      "rotation": [
        -0.7071071863174438,
        -5.338509012631221e-08,
        -5.338507591545749e-08,
        0.7071064114570618
      ],
      "translation": [
        -3.3336127671645954e-06,
        4.39899206161499,
        22.0775203704834
      ]
    },
    {
      "matrix": [
        100.00000000000227,
        -5.6861099826549e-14,
        6.302930152016246e-20,
        0.0,
        6.302929464701596e-20,
        7.733274102587523e-12,
        -99.99998211884076,
        0.0,
        5.686109982668217e-14,
        100.00000000023648,
        7.733275485405115e-12,
        0.0,
        -1.0353361397374972e-11,
        -0.0002059122648461198,
        -0.0005785566712575019,
        1.0
      ],
      "name": "Object_27"
    },
    {
      "mesh": 0,
      "name": "Object_28",
      "skin": 0
    },
    {
      "mesh": 1,
      "name": "Object_29",
      "skin": 0
    },
    {
      "mesh": 2,
      "name": "Object_30",
      "skin": 0
    }
  ],
  "samplers": [
    {
      "magFilter": 9729,
      "minFilter": 9987,
      "wrapS": 10497,
      "wrapT": 10497
    }
  ],
  "scene": 0,
  "scenes": [
    {
      "name": "Sketchfab_Scene",
      "nodes": [
        0
      ]
    }
  ],
  "skins": [
    {
      "inverseBindMatrices": 15,
      "joints": [
        5,
        6,
        7,
        8,
        9,
        10,
        11,
        12,
        13,
        14,
        15,
        16,
        17,
        18,
        19,
        20,
        21,
        22,
        23,
        24,
        25,
        26
      ],
      "skeleton": 5
    }
  ],
  "textures": [
    {
      "sampler": 0,
      "source": 0
    },
    {
      "sampler": 0,
      "source": 1
    }
  ]
}
